<svg version="1.1" xmlns="http://www.w3.org/2000/svg" xmlns:xlink="http://www.w3.org/1999/xlink" width="48" height="48" viewBox="0,0,256,256"><g fill="#fcfcfc" fill-rule="nonzero" stroke="none" stroke-width="1" stroke-linecap="butt" stroke-linejoin="miter" stroke-miterlimit="10" stroke-dasharray="" stroke-dashoffset="0" font-family="none" font-weight="none" font-size="none" text-anchor="none" style="mix-blend-mode: normal"><g transform="translate(0,-28.12398) scale(0.26667,0.26667)"><path d="M474,570c17.33333,-21.33333 30.16667,-43.33333 38.5,-66c8.33333,-22.66667 12.5,-49 12.5,-79c0,-30 -4.16667,-56.33333 -12.5,-79c-8.33333,-22.66667 -21.16667,-44.66667 -38.5,-66c50.66667,-11.33333 95.16667,-3.66667 133.5,23c38.33333,26.66667 57.5,67.33333 57.5,122c0,54.66667 -19.16667,95.33333 -57.5,122c-38.33333,26.66667 -82.83333,34.33333 -133.5,23zM690,896v-94c0,-34 -8.66667,-65.66667 -26,-95c-17.33333,-29.33333 -47.33333,-54 -90,-74c115.33333,14.66667 194.16667,36 236.5,64c42.33333,28 63.5,63 63.5,105v94zM800,607v-100h-100v-60h100v-100h60v100h100v60h-100v100zM315,575c-44,0 -80,-14 -108,-42c-28,-28 -42,-64 -42,-108c0,-44 14,-80 42,-108c28,-28 64,-42 108,-42c44,0 80,14 108,42c28,28 42,64 42,108c0,44 -14,80 -42,108c-28,28 -64,42 -108,42zM0,896v-94c0,-23.33333 6.16667,-44.5 18.5,-63.5c12.33333,-19 28.83333,-33.16667 49.5,-42.5c48,-21.33333 90.83333,-36.66667 128.5,-46c37.66667,-9.33333 77.16667,-14 118.5,-14c41.33333,0 80.66667,4.66667 118,14c37.33333,9.33333 80,24.66667 128,46c20.66667,9.33333 37.33333,23.5 50,42.5c12.66667,19 19,40.16667 19,63.5v94zM315,515c26,0 47.5,-8.5 64.5,-25.5c17,-17 25.5,-38.5 25.5,-64.5c0,-26 -8.5,-47.5 -25.5,-64.5c-17,-17 -38.5,-25.5 -64.5,-25.5c-26,0 -47.5,8.5 -64.5,25.5c-17,17 -25.5,38.5 -25.5,64.5c0,26 8.5,47.5 25.5,64.5c17,17 38.5,25.5 64.5,25.5zM60,836h510v-34c0,-10.66667 -2.66667,-20.66667 -8,-30c-5.33333,-9.33333 -13.66667,-16.66667 -25,-22c-46,-21.33333 -85,-35.66667 -117,-43c-32,-7.33333 -67,-11 -105,-11c-38,0 -72.83333,3.66667 -104.5,11c-31.66667,7.33333 -71.16667,21.66667 -118.5,43c-10,4.66667 -17.83333,11.83333 -23.5,21.5c-5.66667,9.66667 -8.5,19.83333 -8.5,30.5zM315,425zM315,836z"></path></g></g></svg>