<svg version="1.1" xmlns="http://www.w3.org/2000/svg" xmlns:xlink="http://www.w3.org/1999/xlink" width="48" height="48" viewBox="0,0,256,256"><g fill="#185d8b" fill-rule="nonzero" stroke="none" stroke-width="1" stroke-linecap="butt" stroke-linejoin="miter" stroke-miterlimit="10" stroke-dasharray="" stroke-dashoffset="0" font-family="none" font-weight="none" font-size="none" text-anchor="none" style="mix-blend-mode: normal"><g transform="translate(0,-25.6) scale(0.26667,0.26667)"><path d="M180,976c-16,0 -30,-6 -42,-18c-12,-12 -18,-26 -18,-42v-620c0,-16 6,-30 18,-42c12,-12 26,-18 42,-18h65v-60h65v60h340v-60h65v60h65c16,0 30,6 42,18c12,12 18,26 18,42v620c0,16 -6,30 -18,42c-12,12 -26,18 -42,18zM180,916h600v-430h-600zM180,426h600v-130h-600zM180,426v-130zM480,656c-11.33333,0 -20.83333,-3.83333 -28.5,-11.5c-7.66667,-7.66667 -11.5,-17.16667 -11.5,-28.5c0,-11.33333 3.83333,-20.83333 11.5,-28.5c7.66667,-7.66667 17.16667,-11.5 28.5,-11.5c11.33333,0 20.83333,3.83333 28.5,11.5c7.66667,7.66667 11.5,17.16667 11.5,28.5c0,11.33333 -3.83333,20.83333 -11.5,28.5c-7.66667,7.66667 -17.16667,11.5 -28.5,11.5zM320,656c-11.33333,0 -20.83333,-3.83333 -28.5,-11.5c-7.66667,-7.66667 -11.5,-17.16667 -11.5,-28.5c0,-11.33333 3.83333,-20.83333 11.5,-28.5c7.66667,-7.66667 17.16667,-11.5 28.5,-11.5c11.33333,0 20.83333,3.83333 28.5,11.5c7.66667,7.66667 11.5,17.16667 11.5,28.5c0,11.33333 -3.83333,20.83333 -11.5,28.5c-7.66667,7.66667 -17.16667,11.5 -28.5,11.5zM640,656c-11.33333,0 -20.83333,-3.83333 -28.5,-11.5c-7.66667,-7.66667 -11.5,-17.16667 -11.5,-28.5c0,-11.33333 3.83333,-20.83333 11.5,-28.5c7.66667,-7.66667 17.16667,-11.5 28.5,-11.5c11.33333,0 20.83333,3.83333 28.5,11.5c7.66667,7.66667 11.5,17.16667 11.5,28.5c0,11.33333 -3.83333,20.83333 -11.5,28.5c-7.66667,7.66667 -17.16667,11.5 -28.5,11.5zM480,816c-11.33333,0 -20.83333,-3.83333 -28.5,-11.5c-7.66667,-7.66667 -11.5,-17.16667 -11.5,-28.5c0,-11.33333 3.83333,-20.83333 11.5,-28.5c7.66667,-7.66667 17.16667,-11.5 28.5,-11.5c11.33333,0 20.83333,3.83333 28.5,11.5c7.66667,7.66667 11.5,17.16667 11.5,28.5c0,11.33333 -3.83333,20.83333 -11.5,28.5c-7.66667,7.66667 -17.16667,11.5 -28.5,11.5zM320,816c-11.33333,0 -20.83333,-3.83333 -28.5,-11.5c-7.66667,-7.66667 -11.5,-17.16667 -11.5,-28.5c0,-11.33333 3.83333,-20.83333 11.5,-28.5c7.66667,-7.66667 17.16667,-11.5 28.5,-11.5c11.33333,0 20.83333,3.83333 28.5,11.5c7.66667,7.66667 11.5,17.16667 11.5,28.5c0,11.33333 -3.83333,20.83333 -11.5,28.5c-7.66667,7.66667 -17.16667,11.5 -28.5,11.5zM640,816c-11.33333,0 -20.83333,-3.83333 -28.5,-11.5c-7.66667,-7.66667 -11.5,-17.16667 -11.5,-28.5c0,-11.33333 3.83333,-20.83333 11.5,-28.5c7.66667,-7.66667 17.16667,-11.5 28.5,-11.5c11.33333,0 20.83333,3.83333 28.5,11.5c7.66667,7.66667 11.5,17.16667 11.5,28.5c0,11.33333 -3.83333,20.83333 -11.5,28.5c-7.66667,7.66667 -17.16667,11.5 -28.5,11.5z"></path></g></g></svg>