<svg version="1.1" xmlns="http://www.w3.org/2000/svg" xmlns:xlink="http://www.w3.org/1999/xlink" width="48" height="48" viewBox="0,0,256,256"><g fill="#fcfcfc" fill-rule="nonzero" stroke="none" stroke-width="1" stroke-linecap="butt" stroke-linejoin="miter" stroke-miterlimit="10" stroke-dasharray="" stroke-dashoffset="0" font-family="none" font-weight="none" font-size="none" text-anchor="none" style="mix-blend-mode: normal"><g transform="translate(0.66667,-32.93333) scale(0.26667,0.26667)"><path d="M400,571c-44,0 -80,-14 -108,-42c-28,-28 -42,-64 -42,-108c0,-44 14,-80 42,-108c28,-28 64,-42 108,-42c44,0 80,14 108,42c28,28 42,64 42,108c0,44 -14,80 -42,108c-28,28 -64,42 -108,42zM80,892v-94c0,-23.33333 5.83333,-44.33333 17.5,-63c11.66667,-18.66667 28.5,-33 50.5,-43c48,-21.33333 92.5,-36.66667 133.5,-46c41,-9.33333 80.5,-14 118.5,-14h23c-4,9.33333 -7,18.5 -9,27.5c-2,9 -3.66667,19.83333 -5,32.5h-9c-38.66667,0 -76.5,4.16667 -113.5,12.5c-37,8.33333 -75.16667,22.16667 -114.5,41.5c-10.66667,5.33333 -18.66667,12.83333 -24,22.5c-5.33333,9.66667 -8,19.5 -8,29.5v34h269c3.33333,12 7.33333,22.83333 12,32.5c4.66667,9.66667 10.33333,18.83333 17,27.5zM667,936l-10,-66c-11.33333,-3.33333 -22.83333,-8.16667 -34.5,-14.5c-11.66667,-6.33333 -21.5,-13.5 -29.5,-21.5l-55,12l-25,-42l47,-44c-1.33333,-6 -2,-14.33333 -2,-25c0,-10.66667 0.66667,-19 2,-25l-47,-44l25,-42l55,12c8,-8 17.83333,-15.16667 29.5,-21.5c11.66667,-6.33333 23.16667,-11.16667 34.5,-14.5l10,-66h54l10,66c11.33333,3.33333 22.83333,8.16667 34.5,14.5c11.66667,6.33333 21.5,13.5 29.5,21.5l55,-12l25,42l-47,44c1.33333,6 2,14.33333 2,25c0,10.66667 -0.66667,19 -2,25l47,44l-25,42l-55,-12c-8,8 -17.83333,15.16667 -29.5,21.5c-11.66667,6.33333 -23.16667,11.16667 -34.5,14.5l-10,66zM694,815c24,0 43.33333,-7.33333 58,-22c14.66667,-14.66667 22,-34 22,-58c0,-24 -7.33333,-43.33333 -22,-58c-14.66667,-14.66667 -34,-22 -58,-22c-24,0 -43.33333,7.33333 -58,22c-14.66667,14.66667 -22,34 -22,58c0,24 7.33333,43.33333 22,58c14.66667,14.66667 34,22 58,22zM400,511c26,0 47.5,-8.5 64.5,-25.5c17,-17 25.5,-38.5 25.5,-64.5c0,-26 -8.5,-47.5 -25.5,-64.5c-17,-17 -38.5,-25.5 -64.5,-25.5c-26,0 -47.5,8.5 -64.5,25.5c-17,17 -25.5,38.5 -25.5,64.5c0,26 8.5,47.5 25.5,64.5c17,17 38.5,25.5 64.5,25.5zM400,421zM409,832z"></path></g></g></svg>