<svg version="1.1" xmlns="http://www.w3.org/2000/svg" xmlns:xlink="http://www.w3.org/1999/xlink" width="48" height="48" viewBox="0,0,256,256"><g fill="#fcfcfc" fill-rule="nonzero" stroke="none" stroke-width="1" stroke-linecap="butt" stroke-linejoin="miter" stroke-miterlimit="10" stroke-dasharray="" stroke-dashoffset="0" font-family="none" font-weight="none" font-size="none" text-anchor="none" style="mix-blend-mode: normal"><g transform="translate(0,-25.6) scale(0.26667,0.26667)"><path d="M261,936c-16.5,0 -30.625,-5.875 -42.375,-17.625c-11.75,-11.75 -17.625,-25.875 -17.625,-42.375v-570h-41v-60h188v-30h264v30h188v60h-41v570c0,16 -6,30 -18,42c-12,12 -26,18 -42,18zM699,306h-438v570h438zM367,790h60v-399h-60zM533,790h60v-399h-60zM261,306v570z"></path></g></g></svg>