<svg version="1.1" xmlns="http://www.w3.org/2000/svg" xmlns:xlink="http://www.w3.org/1999/xlink" width="48" height="48" viewBox="0,0,256,256"><g fill="#fcfcfc" fill-rule="nonzero" stroke="none" stroke-width="1" stroke-linecap="butt" stroke-linejoin="miter" stroke-miterlimit="10" stroke-dasharray="" stroke-dashoffset="0" font-family="none" font-weight="none" font-size="none" text-anchor="none" style="mix-blend-mode: normal"><g transform="translate(-14.4,-39.86667) scale(0.26667,0.26667)"><path d="M180,1044c-16,0 -30,-6 -42,-18c-12,-12 -18,-26 -18,-42v-600c0,-16 6,-30 18,-42c12,-12 26,-18 42,-18h405l-60,60h-345v600h600v-348l60,-60v408c0,16 -6,30 -18,42c-12,12 -26,18 -42,18zM480,684zM662,332l43,42l-285,284v86h85l286,-286l42,42l-303,304h-170v-170zM833,500l-171,-168l100,-100c11.33333,-11.33333 25.437,-17 42.311,-17c16.874,0 31.10367,6 42.689,18l84,85c11.33333,12 17,26.15733 17,42.472c0,16.31467 -6,30.15733 -18,41.528z"></path></g></g></svg>