<svg version="1.1" xmlns="http://www.w3.org/2000/svg" xmlns:xlink="http://www.w3.org/1999/xlink" width="48" height="48" viewBox="0,0,256,256"><g fill="#ff0000" fill-rule="nonzero" stroke="none" stroke-width="1" stroke-linecap="butt" stroke-linejoin="miter" stroke-miterlimit="10" stroke-dasharray="" stroke-dashoffset="0" font-family="none" font-weight="none" font-size="none" text-anchor="none" style="mix-blend-mode: normal"><g transform="translate(-19.46667,-24.8) scale(0.26667,0.26667)"><path d="M350,422h260v-93c0,-38 -12.5,-69.66667 -37.5,-95c-25,-25.33333 -55.83333,-38 -92.5,-38c-36.66667,0 -67.5,12.66667 -92.5,38c-25,25.33333 -37.5,57 -37.5,95zM557,976h-337c-15.33333,0 -29.16667,-6.16667 -41.5,-18.5c-12.33333,-12.33333 -18.5,-26.16667 -18.5,-41.5v-434c0,-15.33333 6.16667,-29.16667 18.5,-41.5c12.33333,-12.33333 26.16667,-18.5 41.5,-18.5h70v-93c0,-54 18.33333,-99.66667 55,-137c36.66667,-37.33333 81.66667,-56 135,-56c53.33333,0 98.33333,18.66667 135,56c36.66667,37.33333 55,83 55,137v93h70c15.33333,0 29.16667,6.16667 41.5,18.5c12.33333,12.33333 18.5,26.16667 18.5,41.5v87c-8.66667,-2 -17.66667,-3.33333 -27,-4c-9.33333,-0.66667 -20.33333,-1 -33,-1v-82h-520v434h301c4.66667,11.33333 9.66667,21.5 15,30.5c5.33333,9 12.33333,18.83333 21,29.5zM753,1010c-52.66667,0 -98,-19 -136,-57c-38,-38 -57,-83.33333 -57,-136c0,-52.66667 19,-98 57,-136c38,-38 83.33333,-57 136,-57c52.66667,0 98,19 136,57c38,38 57,83.33333 57,136c0,52.66667 -19,98 -57,136c-38,38 -83.33333,57 -136,57zM827,918l27,-27l-84,-76v-124h-42v135.776zM220,482v434z"></path></g></g></svg>