<svg version="1.1" xmlns="http://www.w3.org/2000/svg" xmlns:xlink="http://www.w3.org/1999/xlink" width="48" height="48" viewBox="0,0,256,256"><g fill="#fcfcfc" fill-rule="nonzero" stroke="none" stroke-width="1" stroke-linecap="butt" stroke-linejoin="miter" stroke-miterlimit="10" stroke-dasharray="" stroke-dashoffset="0" font-family="none" font-weight="none" font-size="none" text-anchor="none" style="mix-blend-mode: normal"><g transform="translate(-10.8,-36.13333) scale(0.26667,0.26667)"><path d="M704,917l139,-138l-42,-42l-97,95l-39,-39l-42,43zM240,436h480v-60h-480zM732.5,1015c-51.66667,0 -95.83333,-18.5 -132.5,-55.5c-36.66667,-37 -55,-80.83333 -55,-131.5c0,-52.29 18.33,-96.86267 54.99,-133.718c36.66,-36.85467 80.99667,-55.282 133.01,-55.282c51.33333,0 95.5,18.42733 132.5,55.282c37,36.85533 55.5,81.428 55.5,133.718c0,50.66667 -18.5,94.5 -55.5,131.5c-37,37 -81.33333,55.5 -133,55.5zM120,975v-699c0,-16.5 5.875,-30.625 17.625,-42.375c11.75,-11.75 25.875,-17.625 42.375,-17.625h600c16.5,0 30.625,5.875 42.375,17.625c11.75,11.75 17.625,25.875 17.625,42.375v327c-9.446,-4.57133 -19.141,-8.381 -29.085,-11.429c-9.94333,-3.04733 -20.24833,-5.571 -30.915,-7.571v-308h-600v599h310c1.92333,12.11467 4.904,23.64333 8.942,34.586c4.03867,10.94267 8.72467,21.74733 14.058,32.414l-33,33l-60,-60l-60,60l-60,-60l-60,60l-60,-60zM240,776h252.272c2.48533,-10.66667 5.228,-21 8.228,-31c3,-10 7.16667,-19.66667 12.5,-29h-273zM240,606h384c14.66667,-7.33333 30,-13.16667 46,-17.5c16,-4.33333 32.66667,-7.16667 50,-8.5v-34h-480zM180,875v-599z"></path></g></g></svg>