<svg version="1.1" xmlns="http://www.w3.org/2000/svg" xmlns:xlink="http://www.w3.org/1999/xlink" width="48" height="48" viewBox="0,0,256,256"><g fill-opacity="0.78824" fill="#c0c0c0" fill-rule="nonzero" stroke="none" stroke-width="1" stroke-linecap="butt" stroke-linejoin="miter" stroke-miterlimit="10" stroke-dasharray="" stroke-dashoffset="0" font-family="none" font-weight="none" font-size="none" text-anchor="none" style="mix-blend-mode: normal"><g transform="translate(0,-25.6) scale(0.26667,0.26667)"><path d="M480,976c-54.66667,0 -106.33333,-10.5 -155,-31.5c-48.66667,-21 -91.16667,-49.66667 -127.5,-86c-36.33333,-36.33333 -65,-78.83333 -86,-127.5c-21,-48.66667 -31.5,-100.33333 -31.5,-155c0,-55.33333 10.5,-107.33333 31.5,-156c21,-48.66667 49.66667,-91 86,-127c36.33333,-36 78.83333,-64.5 127.5,-85.5c48.66667,-21 100.33333,-31.5 155,-31.5c55.33333,0 107.33333,10.5 156,31.5c48.66667,21 91,49.5 127,85.5c36,36 64.5,78.33333 85.5,127c21,48.66667 31.5,100.66667 31.5,156c0,19.33333 -1.33333,38.66667 -4,58c-2.66667,19.33333 -6.66667,38 -12,56c-7.33333,-7.33333 -15.5,-13.66667 -24.5,-19c-9,-5.33333 -18.83333,-9.33333 -29.5,-12c3.33333,-13.33333 5.83333,-26.83333 7.5,-40.5c1.66667,-13.66667 2.5,-27.83333 2.5,-42.5c0,-94.66667 -33,-175 -99,-241c-66,-66 -146.33333,-99 -241,-99c-94,0 -174.16667,33 -240.5,99c-66.33333,66 -99.5,146.33333 -99.5,241c0,94 33.16667,174.16667 99.5,240.5c66.33333,66.33333 146.5,99.5 240.5,99.5c38.66667,0 75.33333,-6.16667 110,-18.5c34.66667,-12.33333 66.33333,-29.16667 95,-50.5c6.66667,8 14,15.33333 22,22c8,6.66667 16.66667,12 26,16c-34.66667,28.66667 -73.5,51 -116.5,67c-43,16 -88.5,24 -136.5,24zM780,815c-11.33333,0 -20.83333,-3.83333 -28.5,-11.5c-7.66667,-7.66667 -11.5,-17.16667 -11.5,-28.5c0,-11.33333 3.83333,-20.83333 11.5,-28.5c7.66667,-7.66667 17.16667,-11.5 28.5,-11.5c11.33333,0 20.83333,3.83333 28.5,11.5c7.66667,7.66667 11.5,17.16667 11.5,28.5c0,11.33333 -3.83333,20.83333 -11.5,28.5c-7.66667,7.66667 -17.16667,11.5 -28.5,11.5zM627,769l-174,-181v-225h60v201l159,160z"></path></g></g></svg>