<svg version="1.1" xmlns="http://www.w3.org/2000/svg" xmlns:xlink="http://www.w3.org/1999/xlink" width="48" height="48" viewBox="0,0,256,256"><g fill="#fcfcfc" fill-rule="nonzero" stroke="none" stroke-width="1" stroke-linecap="butt" stroke-linejoin="miter" stroke-miterlimit="10" stroke-dasharray="" stroke-dashoffset="0" font-family="none" font-weight="none" font-size="none" text-anchor="none" style="mix-blend-mode: normal"><g transform="translate(0,-25.6) scale(0.26667,0.26667)"><path d="M331,625h37v-83h48c10.48333,0 19.27067,-3.546 26.362,-10.638c7.092,-7.09133 10.638,-15.87867 10.638,-26.362v-48c0,-10.48333 -3.546,-19.27067 -10.638,-26.362c-7.09133,-7.092 -15.87867,-10.638 -26.362,-10.638h-85zM368,505v-48h48v48zM497,625h84c10,0 18.66667,-3.546 26,-10.638c7.33333,-7.09133 11,-15.87867 11,-26.362v-131c0,-10.48333 -3.66667,-19.27067 -11,-26.362c-7.33333,-7.092 -16,-10.638 -26,-10.638h-84zM534,588v-131h47v131zM667,625h37v-83h50v-37h-50v-48h50v-37h-87zM260,856c-16,0 -30,-6 -42,-18c-12,-12 -18,-26 -18,-42v-560c0,-16 6,-30 18,-42c12,-12 26,-18 42,-18h560c16,0 30,6 42,18c12,12 18,26 18,42v560c0,16 -6,30 -18,42c-12,12 -26,18 -42,18zM260,796h560v-560h-560zM140,976c-16,0 -30,-6 -42,-18c-12,-12 -18,-26 -18,-42v-620h60v620h620v60zM260,236v560z"></path></g></g></svg>