<svg version="1.1" xmlns="http://www.w3.org/2000/svg" xmlns:xlink="http://www.w3.org/1999/xlink" width="48" height="48" viewBox="0,0,256,256"><g fill="#fcfcfc" fill-rule="nonzero" stroke="none" stroke-width="1" stroke-linecap="butt" stroke-linejoin="miter" stroke-miterlimit="10" stroke-dasharray="" stroke-dashoffset="0" font-family="none" font-weight="none" font-size="none" text-anchor="none" style="mix-blend-mode: normal"><g transform="translate(-5.33333,-20.26667) scale(0.26667,0.26667)"><path d="M691,976c-52.29,0 -96.86267,-18.42733 -133.718,-55.282c-36.85467,-36.85533 -55.282,-81.428 -55.282,-133.718c0,-52.29 18.42733,-96.86267 55.282,-133.718c36.85533,-36.85467 81.428,-55.282 133.718,-55.282c52.29,0 96.86267,18.42733 133.718,55.282c36.85467,36.85533 55.282,81.428 55.282,133.718c0,52.29 -18.42733,96.86267 -55.282,133.718c-36.85533,36.85467 -81.428,55.282 -133.718,55.282zM749.243,888l27.757,-28l-75,-75v-112h-39v126zM180,936c-16.5,0 -30.625,-5.875 -42.375,-17.625c-11.75,-11.75 -17.625,-25.875 -17.625,-42.375v-600c0,-17.33333 5.66667,-31.66667 17,-43c11.33333,-11.33333 25.66667,-17 43,-17h202c4.66667,-23.33333 16.16667,-42.5 34.5,-57.5c18.33333,-15 39.5,-22.5 63.5,-22.5c24,0 45.16667,7.5 63.5,22.5c18.33333,15 29.83333,34.16667 34.5,57.5h202c17.33333,0 31.66667,5.66667 43,17c11.33333,11.33333 17,25.66667 17,43v308c-10,-6 -19.83867,-11.16 -29.516,-15.48c-9.67733,-4.32 -19.83867,-8.16 -30.484,-11.52v-281h-60v90h-480v-90h-60v600h280c3.33333,10 7.33333,19.83333 12,29.5c4.66667,9.66667 10.33333,19.83333 17,30.5zM480,272c11.33333,0 20.83333,-3.83333 28.5,-11.5c7.66667,-7.66667 11.5,-17.16667 11.5,-28.5c0,-11.33333 -3.83333,-20.83333 -11.5,-28.5c-7.66667,-7.66667 -17.16667,-11.5 -28.5,-11.5c-11.33333,0 -20.83333,3.83333 -28.5,11.5c-7.66667,7.66667 -11.5,17.16667 -11.5,28.5c0,11.33333 3.83333,20.83333 11.5,28.5c7.66667,7.66667 17.16667,11.5 28.5,11.5z"></path></g></g></svg>