<svg version="1.1" xmlns="http://www.w3.org/2000/svg" xmlns:xlink="http://www.w3.org/1999/xlink" width="48" height="48" viewBox="0,0,256,256"><g fill="#fcfcfc" fill-rule="nonzero" stroke="none" stroke-width="1" stroke-linecap="butt" stroke-linejoin="miter" stroke-miterlimit="10" stroke-dasharray="" stroke-dashoffset="0" font-family="none" font-weight="none" font-size="none" text-anchor="none" style="mix-blend-mode: normal"><g transform="translate(0,-25.6) scale(0.26667,0.26667)"><path d="M480,896c-88.66667,0 -164.16667,-31.16667 -226.5,-93.5c-62.33333,-62.33333 -93.5,-137.83333 -93.5,-226.5c0,-88.66667 31.16667,-164.16667 93.5,-226.5c62.33333,-62.33333 137.83333,-93.5 226.5,-93.5c56.66667,0 106.33333,11.5 149,34.5c42.66667,23 79.66667,54.5 111,94.5v-129h60v254h-254v-60h168c-25.33333,-40 -57.66667,-72.33333 -97,-97c-39.33333,-24.66667 -85,-37 -137,-37c-72.66667,0 -134.16667,25.16667 -184.5,75.5c-50.33333,50.33333 -75.5,111.83333 -75.5,184.5c0,72.66667 25.16667,134.16667 75.5,184.5c50.33333,50.33333 111.83333,75.5 184.5,75.5c55.33333,0 106,-15.83333 152,-47.5c46,-31.66667 78,-73.5 96,-125.5h62c-19.33333,70 -57.66667,126.33333 -115,169c-57.33333,42.66667 -122.33333,64 -195,64z"></path></g></g></svg>