<svg version="1.1" xmlns="http://www.w3.org/2000/svg" xmlns:xlink="http://www.w3.org/1999/xlink" width="48" height="48" viewBox="0,0,256,256"><g fill="#fcfcfc" fill-rule="nonzero" stroke="none" stroke-width="1" stroke-linecap="butt" stroke-linejoin="miter" stroke-miterlimit="10" stroke-dasharray="" stroke-dashoffset="0" font-family="none" font-weight="none" font-size="none" text-anchor="none" style="mix-blend-mode: normal"><g transform="translate(0,-20.26667) scale(0.26667,0.26667)"><path d="M193,936l-6,-49l-14,-7c-4,-2 -7.66667,-4.33333 -11,-7l-46,19l-37,-64l39,-29v-29l-39,-30l37,-64l46,19c10,-6.66667 16,-10.5 18,-11.5l7,-3.5l6,-48h74l6,49c2.66667,1.33333 5.16667,2.5 7.5,3.5c2.33333,1 4.5,2.16667 6.5,3.5c2,1.33333 3.83333,2.5 5.5,3.5c1.66667,1 3.5,2.16667 5.5,3.5l46,-19l37,64l-39,29c1.33333,5.33333 1.66667,11.66667 1,19c-0.66667,7.33333 -2,12.33333 -4,15c1.33333,1.33333 2.33333,2 3,2c0.66667,0 1.66667,0.66667 3,2l254,-131l-38,69l-189,97l-28,50l-46,-19c-10,6 -16,9.66667 -18,11c-2,1.33333 -4.33333,2.66667 -7,4l-6,48zM230,716c-18.66667,0 -34.66667,6.66667 -48,20c-13.33333,13.33333 -20,29.33333 -20,48c0,18.66667 6.66667,34.66667 20,48c13.33333,13.33333 29.33333,20 48,20c18.66667,0 34.66667,-6.66667 48,-20c13.33333,-13.33333 20,-29.33333 20,-48c0,-18.66667 -6.66667,-34.66667 -20,-48c-13.33333,-13.33333 -29.33333,-20 -48,-20zM403,480l-5,-48c-4,-2.66667 -8,-5.16667 -12,-7.5c-4,-2.33333 -8,-4.83333 -12,-7.5l-2,1v279l-22,-39l-22,10v-240l-38,-56l38,-29v-29l-39,-30l37,-64l46,19c10,-6.66667 16,-10.5 18,-11.5l7,-3.5l6,-48h74l6,49l14,7c4,2 7.66667,4.33333 11,7l46,-19l37,64l-39,29v29l39,30l-37,64l-46,-19c-10,6 -16,9.66667 -18,11c-2,1.33333 -4.33333,2.66667 -7,4l-6,48zM440,260c-18.66667,0 -34.66667,6.66667 -48,20c-13.33333,13.33333 -20,29.33333 -20,48c0,18.66667 6.66667,34.66667 20,48c13.33333,13.33333 29.33333,20 48,20c18.66667,0 34.66667,-6.66667 48,-20c13.33333,-13.33333 20,-29.33333 20,-48c0,-18.66667 -6.66667,-34.66667 -20,-48c-13.33333,-13.33333 -29.33333,-20 -48,-20zM693,936l-6,-49l-14,-7c-4,-2 -7.66667,-4.33333 -11,-7l-46,19l-37,-64l39,-29v-29l-39,-29l37,-65l46,19c4,-4 7.33333,-7 10,-9c2.66667,-2 5.66667,-3.66667 9,-5l3,-12l-235,-175h40l3,-23l216,161h59l6,49c2.66667,1.33333 5.16667,2.5 7.5,3.5c2.33333,1 4.5,2.16667 6.5,3.5c2,1.33333 3.83333,2.5 5.5,3.5c1.66667,1 3.5,2.16667 5.5,3.5l46,-19l37,64l-39,29v29l39,30l-37,64l-46,-19c-10,6 -16,9.66667 -18,11c-2,1.33333 -4.33333,2.66667 -7,4l-6,48zM730,716c-18.66667,0 -34.66667,6.66667 -48,20c-13.33333,13.33333 -20,29.33333 -20,48c0,18.66667 6.66667,34.66667 20,48c13.33333,13.33333 29.33333,20 48,20c18.66667,0 34.66667,-6.66667 48,-20c13.33333,-13.33333 20,-29.33333 20,-48c0,-18.66667 -6.66667,-34.66667 -20,-48c-13.33333,-13.33333 -29.33333,-20 -48,-20z"></path></g></g></svg>