<svg version="1.1" xmlns="http://www.w3.org/2000/svg" xmlns:xlink="http://www.w3.org/1999/xlink" width="48" height="48" viewBox="0,0,256,256"><g fill="#fcfcfc" fill-rule="nonzero" stroke="none" stroke-width="1" stroke-linecap="butt" stroke-linejoin="miter" stroke-miterlimit="10" stroke-dasharray="" stroke-dashoffset="0" font-family="none" font-weight="none" font-size="none" text-anchor="none" style="mix-blend-mode: normal"><g transform="translate(0,-25.6) scale(0.26667,0.26667)"><path d="M220,1016c-16,0 -30,-6 -42,-18c-12,-12 -18,-26 -18,-42v-509c0,-16 6,-30 18,-42c12,-12 26,-18 42,-18h169v60h-169v509h520v-509h-171v-60h171c16,0 30,6 42,18c12,12 18,26 18,42v509c0,16 -6,30 -18,42c-12,12 -26,18 -42,18zM449,709v-457l-88,88l-43,-43l161,-161l161,161l-43,43l-88,-88v457z"></path></g></g></svg>