<svg version="1.1" xmlns="http://www.w3.org/2000/svg" xmlns:xlink="http://www.w3.org/1999/xlink" width="48" height="48" viewBox="0,0,256,256"><g fill="#ffffff" fill-rule="nonzero" stroke="none" stroke-width="1" stroke-linecap="butt" stroke-linejoin="miter" stroke-miterlimit="10" stroke-dasharray="" stroke-dashoffset="0" font-family="none" font-weight="none" font-size="none" text-anchor="none" style="mix-blend-mode: normal"><g transform="translate(0,-28.13333) scale(0.26667,0.26667)"><path d="M480,575c-44,0 -80,-14 -108,-42c-28,-28 -42,-64 -42,-108c0,-44 14,-80 42,-108c28,-28 64,-42 108,-42c44,0 80,14 108,42c28,28 42,64 42,108c0,44 -14,80 -42,108c-28,28 -64,42 -108,42zM160,896v-94c0,-25.33333 6.33333,-47 19,-65c12.66667,-18 29,-31.66667 49,-41c44.66667,-20 87.5,-35 128.5,-45c41,-10 82.16667,-15 123.5,-15c41.33333,0 82.33333,5.16667 123,15.5c40.66667,10.33333 83.33333,25.16667 128,44.5c20.66667,9.33333 37.33333,23 50,41c12.66667,18 19,39.66667 19,65v94z"></path></g></g></svg>